<?xml version="1.0" encoding="utf-8"?>
<svg xmlns="http://www.w3.org/2000/svg" xmlns:svg="http://www.w3.org/2000/svg" version="1.1" viewBox="0 0 1400 340">
	<title>The titlepage for the Standard Ebooks edition of Gulliver’s Travels, by Jonathan Swift</title>
	<g aria-label="GULLIVER’S TRAVELS">
		<path d="m 227.61549,86.771929 h -35.64912 v 13.567251 h 17.77777 c 0,9.45029 -8.32748,14.87719 -16.74853,14.87719 -10.85381,0 -19.64913,-10.66666 -19.64913,-23.766078 0,-13.380117 8.79532,-24.140352 19.64913,-24.140352 6.83041,0 12.72514,2.713451 17.21637,9.918129 L 221.72075,64.59649 c -6.73684,-8.140351 -16.18713,-13.192983 -29.75438,-13.192983 -21.70761,0 -37.61404,17.871346 -37.61404,40.046785 0,22.081868 16.84211,39.953218 37.61404,39.953218 15.15789,0 31.43859,-8.32749 35.64912,-27.88304 z"/>
		<path d="M 299.62134,52.807016 H 282.0307 v 44.63158 c 0,12.912284 -3.92983,16.654974 -12.53802,16.654974 -8.60818,0 -12.53801,-3.74269 -12.53801,-16.654974 v -44.63158 h -17.59064 v 49.777774 c 0,19.08772 10.47953,28.81872 30.12865,28.81872 19.64913,0 30.12866,-9.731 30.12866,-28.81872 z"/>
		<path d="M 332.51754,52.807016 H 314.9269 V 130 h 44.16374 v -15.4386 h -26.5731 z"/>
		<path d="M 390.33187,52.807016 H 372.74123 V 130 h 44.16374 v -15.4386 h -26.5731 z"/>
		<path d="M 448.1462,52.807016 H 430.55556 V 130 h 17.59064 z"/>
		<path d="m 480.52922,130 h 13.84796 L 526.75145,52.807016 H 506.91519 L 487.4532,103.52047 467.99121,52.807016 h -19.83626 z"/>
		<path d="M 578.83478,52.807016 H 534.67104 V 130 h 44.16374 v -15.4386 h -26.5731 V 99.029239 h 25.4503 V 83.590642 h -25.4503 V 68.245613 h 26.5731 z"/>
		<path d="M 593.94738,52.807016 V 130 h 17.59064 V 99.497075 L 635.11697,130 h 22.36257 l -26.5731,-31.906433 c 9.45029,-2.994152 15.81287,-10.760234 15.81287,-22.362574 0,-15.157895 -10.85381,-22.923977 -25.1696,-22.923977 z m 17.59064,34.245615 V 66.842104 h 2.05848 c 6.64327,0 14.59649,0.467836 14.59649,10.105263 0,9.637428 -7.95322,10.105264 -14.59649,10.105264 z"/>
		<path d="m 675.65353,51.403507 c -5.33334,0 -9.63743,4.397661 -9.63743,9.824562 0,4.397661 3.18129,7.766082 7.29825,8.795322 -1.30994,7.111111 -6.45614,11.976608 -6.45614,11.976608 l 4.39766,3.461989 c 6.83041,-5.707603 14.22222,-14.035088 14.22222,-24.233919 0,-5.426901 -4.39766,-9.824562 -9.82456,-9.824562 z"/>
		<path d="m 726.69004,51.403507 c -12.44445,0 -25.16959,9.169591 -25.16959,23.578948 0,8.046784 5.4269,15.251462 14.69006,19.836258 9.16959,4.584795 17.4035,7.111107 17.4035,12.725147 0,7.20468 -7.29824,7.57895 -11.1345,7.57895 -8.60819,0 -18.90058,-8.70176 -18.90058,-8.70176 l -8.79533,14.78363 c 0,0 10.94737,10.19883 29.00585,10.19883 15.06433,0 29.09942,-6.45614 29.09942,-24.88889 0,-10.105264 -9.45029,-17.40351 -18.05848,-21.052632 -8.79532,-3.742691 -16.09357,-6.83041 -16.09357,-11.134504 0,-4.210526 3.18129,-6.923976 9.16959,-6.923976 7.95322,0 15.62573,5.333333 15.62573,5.333333 l 7.11111,-14.035088 c 0,0 -9.91812,-7.298246 -23.95321,-7.298246 z"/>
		<path d="m 787.26169,68.245613 h 18.33918 V 130 h 17.59064 V 68.245613 h 18.33918 V 52.807016 h -54.269 z"/>
		<path d="M 852.86553,52.807016 V 130 h 17.59064 V 99.497075 L 894.03512,130 h 22.36257 l -26.5731,-31.906433 c 9.45029,-2.994152 15.81287,-10.760234 15.81287,-22.362574 0,-15.157895 -10.8538,-22.923977 -25.16959,-22.923977 z m 17.59064,34.245615 V 66.842104 h 2.05848 c 6.64328,0 14.59649,0.467836 14.59649,10.105263 0,9.637428 -7.95321,10.105264 -14.59649,10.105264 z"/>
		<path d="m 964.13887,52.807016 h -16.2807 L 916.70027,130 h 18.90059 l 5.7076,-15.4386 h 29.38012 L 976.39618,130 h 18.90059 z m 0.5614,46.31579 h -17.4035 l 8.60818,-22.45614 h 0.18714 z"/>
		<path d="m 1019.3158,130 h 13.848 l 32.3742,-77.192984 h -19.8362 l -19.462,50.713454 -19.462,-50.713454 h -19.83625 z"/>
		<path d="m 1117.6214,52.807016 h -44.1638 V 130 h 44.1638 v -15.4386 h -26.5731 V 99.029239 h 25.4503 V 83.590642 h -25.4503 V 68.245613 h 26.5731 z"/>
		<path d="m 1150.3246,52.807016 h -17.5907 V 130 h 44.1638 v -15.4386 h -26.5731 z"/>
		<path d="m 1218.9927,51.403507 c -12.4445,0 -25.1696,9.169591 -25.1696,23.578948 0,8.046784 5.4269,15.251462 14.69,19.836258 9.1696,4.584795 17.4035,7.111107 17.4035,12.725147 0,7.20468 -7.2982,7.57895 -11.1345,7.57895 -8.6082,0 -18.9006,-8.70176 -18.9006,-8.70176 l -8.7953,14.78363 c 0,0 10.9474,10.19883 29.0059,10.19883 15.0643,0 29.0994,-6.45614 29.0994,-24.88889 0,-10.105264 -9.4503,-17.40351 -18.0585,-21.052632 -8.7953,-3.742691 -16.0936,-6.83041 -16.0936,-11.134504 0,-4.210526 3.1813,-6.923976 9.1696,-6.923976 7.9532,0 15.6258,5.333333 15.6258,5.333333 l 7.1111,-14.035088 c 0,0 -9.9182,-7.298246 -23.9532,-7.298246 z"/>
	</g>
	<g aria-label="JONATHAN SWIFT">
		<path d="m 372.13652,232.10526 h -13.19299 v 38.17544 c 0,5.82456 -2.87719,8.14035 -6.66666,8.14035 -3.36842,0 -7.50877,-3.92982 -7.50877,-3.92982 l -4.21053,11.01754 c 0,0 5.26316,5.54386 13.54386,5.54386 11.57895,0 18.03509,-6.03509 18.03509,-17.40351 z"/>
		<path d="m 382.24178,261.01754 c 0,16.91228 12.07018,30.03509 29.19298,30.03509 16.63158,0 29.12281,-13.12281 29.12281,-30.03509 0,-16.91228 -13.05263,-29.96491 -29.12281,-29.96491 -15.92982,0 -29.19298,13.05263 -29.19298,29.96491 z m 14.24561,0 c 0,-8.63157 4.77193,-17.26315 14.94737,-17.26315 10.24562,0 14.87719,8.63158 14.87719,17.26315 0,8.63158 -4.35087,17.26316 -14.87719,17.26316 -10.80702,0 -14.94737,-8.63158 -14.94737,-17.26316 z"/>
		<path d="m 464.57182,254.07018 h 0.14035 L 487.72971,290 h 13.19299 v -57.89474 h -13.19299 v 35.92983 h -0.14035 L 464.57182,232.10526 H 451.37884 V 290 h 13.19298 z"/>
		<path d="M 543.75932,232.10526 H 531.54879 L 508.18037,290 h 14.17544 l 4.2807,-11.57895 H 548.6716 L 552.9523,290 h 14.17544 z m 0.42105,34.73685 H 531.12774 L 537.58388,250 h 0.14035 z"/>
		<path d="m 567.24178,243.68421 h 13.75439 V 290 h 13.19298 v -46.31579 h 13.75439 v -11.57895 h -40.70176 z"/>
		<path d="m 630.88761,266.77193 h 18.66667 V 290 h 13.19298 v -57.89474 h -13.19298 v 23.08772 H 630.88761 V 232.10526 H 617.69463 V 290 h 13.19298 z"/>
		<path d="M 705.55209,232.10526 H 693.34156 L 669.97314,290 h 14.17544 l 4.2807,-11.57895 h 22.03509 L 714.74507,290 h 14.17544 z m 0.42105,34.73685 H 692.92051 L 699.37665,250 h 0.14035 z"/>
		<path d="m 749.30317,254.07018 h 0.14035 L 772.46107,290 h 13.19298 v -57.89474 h -13.19298 v 35.92983 h -0.14035 L 749.30317,232.10526 H 736.11019 V 290 h 13.19298 z"/>
		<path d="m 843.23848,231.05263 c -9.33334,0 -18.8772,6.8772 -18.8772,17.68421 0,6.03509 4.07018,11.4386 11.01755,14.8772 6.87719,3.43859 13.05263,5.33333 13.05263,9.54385 0,5.40351 -5.47369,5.68422 -8.35088,5.68422 -6.45614,0 -14.17544,-6.52632 -14.17544,-6.52632 l -6.59649,11.08772 c 0,0 8.21053,7.64912 21.75439,7.64912 11.29824,0 21.82456,-4.8421 21.82456,-18.66666 0,-7.57895 -7.08772,-13.05264 -13.54386,-15.78948 -6.59649,-2.80702 -12.07018,-5.12281 -12.07018,-8.35088 0,-3.15789 2.38597,-5.19298 6.8772,-5.19298 5.96491,0 11.71929,4 11.71929,4 l 5.33334,-10.52631 c 0,0 -7.4386,-5.47369 -17.96491,-5.47369 z"/>
		<path d="m 912.4446,290 h 14.59649 l 16.49123,-57.89474 h -14.59649 l -9.89474,39.7193 h -0.35087 l -10.52632,-39.7193 h -9.96491 l -10.52632,39.7193 h -0.35087 l -9.89474,-39.7193 H 862.76039 L 879.25162,290 h 14.66667 l 9.26316,-32.49123 z"/>
		<path d="M 964.88981,232.10526 H 951.69683 V 290 h 13.19298 z"/>
		<path d="M 1011.8262,232.10526 H 978.35253 V 290 h 13.19298 v -23.22807 h 18.73689 v -11.57895 h -18.73689 v -11.50877 h 20.28069 z"/>
		<path d="m 1016.0247,243.68421 h 13.7544 V 290 h 13.193 v -46.31579 h 13.7544 v -11.57895 h -40.7018 z"/>
	</g>
</svg>
